<svg data-noselect="" viewBox="0 0 800 600" width="1600" height="1200" preserveAspectRatio="none" version="1.1" xmlns="http://www.w3.org/2000/svg"><defs></defs> <g id="shape_2ayGvHns9h" transform="translate(423.65103149414,286.48712158203) rotate(0,10.6005859375,16.326904296875) scale(1,1)" filter="" style="cursor: move; opacity: 1;"><g><svg xmlns="http://www.w3.org/2000/svg" version="1.1" xmlns:xlink="http://www.w3.org/1999/xlink" overflow="hidden" style="top:0; left: 0" width="21.201171875" height="32.65380859375" viewBox="0 0 16.201171875 32.65380859375" preserveAspectRatio="none" data-parent="shape_2ayGvHns9h"><rect fill="rgba(0,0,0,0)" width="21.201171875" height="32.65380859375"></rect> <rect opacity="0"></rect><g transform="translate(0 0)" data-width="11.201171875"><path fill="#014099" d="" transform="translate(5 20.947265625)" data-glyph-w="6.201171875"></path></g></svg></g> <!----></g><g id="shape_Fn9EgKXbEB" transform="translate(175.03164672852,227.54703521728516) rotate(0,273.94,35.1335) scale(1,1)" filter="" style="cursor: move; opacity: 1;"><g><svg xmlns="http://www.w3.org/2000/svg" version="1.1" xmlns:xlink="http://www.w3.org/1999/xlink" overflow="hidden" style="top:0; left: 0" width="547.88" height="70.267" viewBox="0 0 547.88 70.267" preserveAspectRatio="none" data-parent="shape_Fn9EgKXbEB"><rect fill="rgba(0,0,0,0)" width="547.88" height="70.267"></rect> <rect opacity="0"></rect><g transform="translate(0,0)" data-width="547.88"><path fill="#FFFFFF" d="M44.14-39.09L50.17-39.09L52.14-39.09L52.14-7.48Q52.14-6.15 51.65-4.99Q51.16-3.83 50.29-2.96Q49.42-2.09 48.26-1.59Q47.10-1.10 45.76-1.10L45.76-1.10L37.06-1.10L29.06-1.10L29-1.10L29-39.03L29.06-39.03L29.06-39.09L44.14-39.09ZM44.14-8.64L44.14-33.35L37.06-33.35L37.06-6.84L42.28-6.84Q43.04-6.84 43.59-7.37Q44.14-7.89 44.14-8.64L44.14-8.64ZM10.56-0.17L1.22-0.17L8.35-16.88L1.22-16.88L1.22-22.62L10.21-22.62L10.21-33.00L1.22-33.00L5.05-41.64L13.63-41.64L12.35-38.74L26.33-38.74L26.33-33.00L18.97-33.00L18.97-22.62L26.97-22.62L26.97-16.88L17.75-16.88L16.12-13.17L22.56-13.17L27.72-0.17L18.97-0.17L14.96-10.38L10.56-0.17Z" transform="translate(5 49.822)" data-glyph-w="53.36"></path><path fill="#FFFFFF" d="M52.55-40.77L52.55-22.50Q52.55-21.29 52.03-20.07L52.03-20.07Q51.79-19.49 51.48-19.00Q51.16-18.50 50.75-18.04L50.75-18.04Q50.23-17.57 49.76-17.26Q49.30-16.94 48.66-16.70L48.66-16.70Q47.68-16.18 46.23-16.18L46.23-16.18L22.21-16.18L22.21-40.77L52.55-40.77ZM4.06-24.01L4.06-29.81L15.60-29.81L15.60-6.79Q15.60-6.15 16.07-5.51L16.07-5.51Q16.70-4.99 17.40-4.99L17.40-4.99L20.18-4.99L17.92 0.12L13.92 0.12Q12.70 0.12 11.37-0.35L11.37-0.35Q10.15-0.99 9.40-1.74L9.40-1.74Q8.53-2.61 8.00-3.83L8.00-3.83Q7.48-4.87 7.48-6.32L7.48-6.32L7.48-24.01L4.06-24.01ZM44.54-23.66L44.54-35.03L30.22-35.03L30.22-21.92L42.69-21.92Q43.38-21.92 44.02-22.39L44.02-22.39Q44.54-23.03 44.54-23.66L44.54-23.66ZM29.64 0.12L21.29 0.12L24.71-13.28L33.06-13.28L29.64 0.12ZM50.40-13.28L53.88 0.12L45.53 0.12L42.11-13.28L50.40-13.28ZM8.41-33.06L4.12-41.88L13.63-41.88L17.92-33.06L8.41-33.06Z" transform="translate(58.36 49.822)" data-glyph-w="58"></path><path fill="#FFFFFF" d="M12.06-6.32L9.22 0.06L1.22 0.06L4.00-6.32L4.00-25.23L12.47-25.23L7.25-30.86L17.86-30.86L23.08-25.23L33.06-25.23L38.28-30.86L48.89-30.86L43.67-25.23L52.14-25.23L52.14-19.49L12.06-19.49L12.06-6.32ZM52.14-37.99L52.14-32.25L4.00-32.25L4.00-37.99L24.24-37.99L22.56-41.82L30.57-41.82L32.31-37.99L52.14-37.99Z" transform="translate(116.36 49.822)" data-glyph-w="53.36"></path><path fill="#FFFFFF" d="M9.05 0.06L9.05-32.42L1.33-32.42L1.33-38.11L9.05-38.11L9.05-41.82L15.60-41.82L15.60-38.11L23.37-38.11L23.37-32.42L15.60-32.42L15.60 0.06L9.05 0.06ZM7.77-29.46L6.79-0.17L1.51-0.17L2.49-29.46L7.77-29.46ZM17.63-0.17L16.70-29.46L21.98-29.46L22.91-0.17L17.63-0.17ZM51.97-40.54L51.97-34.80Q51.39-28.65 49.04-23.43Q46.69-18.21 43.21-13.86L43.21-13.86Q45.41-11.89 47.65-10.32Q49.88-8.76 51.97-7.54L51.97-7.54L51.97 0.06Q48.49-1.28 45.04-3.45Q41.59-5.63 38.28-8.58L38.28-8.58Q35.03-5.63 31.55-3.45Q28.07-1.28 24.59 0.06L24.59 0.06L24.59-7.54Q26.68-8.76 28.91-10.32Q31.15-11.89 33.35-13.86L33.35-13.86Q30.10-17.86 27.84-22.74Q25.58-27.61 24.82-33.23L24.82-33.23L31.96-33.23Q32.65-29.06 34.34-25.55Q36.02-22.04 38.28-19.08L38.28-19.08Q40.83-22.33 42.60-26.22Q44.37-30.10 44.83-34.80L44.83-34.80L24.59-34.80L24.59-40.54L51.97-40.54Z" transform="translate(169.72 49.822)" data-glyph-w="53.36"></path><path fill="#FFFFFF" d="M48.02-31.20L48.02-6.90Q48.02-6.38 48.40-6.03Q48.78-5.68 49.30-5.68L49.30-5.68L52.32-5.68L50.05 0L48.02 0L45.18 0Q43.38 0 42.11-1.28Q40.83-2.55 40.83-4.35L40.83-4.35L40.83-31.20L34.63-31.20L32.71-19.78L37.47-18.50L37.47-12.82L31.84-14.38L29.41 0L22.21 0L24.94-16.24L20.94-17.34L20.94-23.03L25.87-21.69L27.43-31.20L22.21-31.20L22.21-36.89L28.42-36.89L29.17-41.59L36.37-41.59L35.61-36.89L40.83-36.89L48.02-36.89L48.02-31.20ZM3.94-4.99L5.34-4.99Q6.15-4.99 6.67-5.51Q7.19-6.03 7.19-6.84L7.19-6.84L7.19-13.34L1.04-11.89L1.04-17.75L7.19-19.20L7.19-32.07L1.51-32.07L1.51-37.70L7.19-37.70L7.19-41.82L14.38-41.82L14.38-37.70L20.07-37.70L20.07-32.07L14.38-32.07L14.38-20.94L18.62-21.92L18.62-16.07L14.38-15.08L14.38-5.45Q14.38-4.29 13.95-3.31Q13.51-2.32 12.79-1.59Q12.06-0.87 11.05-0.43Q10.03 0 8.93 0L8.93 0L1.51 0L3.94-4.99Z" transform="translate(223.07999999999998 49.822)" data-glyph-w="53.36"></path><path fill="#FFFFFF" d="M14.62-16.53L9.22 0L1.22 0L6.61-16.53L14.62-16.53ZM6.61-19.26L1.22-32.25L5.16-32.25L1.22-41.82L9.22-41.82L14.62-28.83L10.67-28.83L14.62-19.26L6.61-19.26ZM14.62-1.33L24.42-18.21L15.95-18.21L15.95-23.95L30.04-23.95L30.04-32.42L17.23-32.42L17.23-38.16L30.04-38.16L30.04-41.82L38.11-41.82L38.11-38.16L50.87-38.16L50.87-32.42L38.11-32.42L38.11-23.95L52.14-23.95L52.14-18.21L34.10-18.21L27.67-7.08L41.24-7.08L39.67-11.02L47.68-11.02L52.14 0L44.08 0L43.56-1.33L24.36-1.33L20.82-1.33L14.62-1.33Z" transform="translate(276.44 49.822)" data-glyph-w="53.36"></path><path fill="#FFFFFF" d="M10.15 0L1.91 0L1.91-5.05L1.91-7.37L1.91-11.31L1.91-13.63L1.91-18.21L1.91-18.79L43.04-18.79L51.45-18.79L51.45-13.63L51.45-11.31L51.45-7.60L51.45-7.37Q51.39-5.80 50.90-4.47Q50.40-3.13 49.53-2.15Q48.66-1.16 47.50-0.58Q46.34 0 45.07 0L45.07 0L10.15 0ZM10.15-13.63L10.15-11.31L43.04-11.31L43.04-13.63L10.15-13.63ZM10.15-7.37L10.15-5.05L41.18-5.05Q41.99-5.05 42.51-5.68Q43.04-6.32 43.04-7.25L43.04-7.25L43.04-7.37L10.15-7.37ZM29.12-41.24L29.12-41.76L52.14-41.76L52.14-41.24L52.14-36.02L52.14-26.62Q52.14-25.29 51.65-24.13Q51.16-22.97 50.29-22.10Q49.42-21.23 48.26-20.73Q47.10-20.24 45.76-20.24L45.76-20.24L29.12-20.24L29.12-22.50L29.12-25.98L29.12-36.02L29.12-41.24ZM44.08-27.78L44.08-36.02L37.18-36.02L37.18-25.98L42.28-25.98Q43.04-25.98 43.56-26.51Q44.08-27.03 44.08-27.78L44.08-27.78ZM10.67-20.24L1.33-20.24L8.18-26.16L1.22-26.16L1.22-31.90L11.19-31.90L11.19-33.99L9.22-33.99L4.93-33.99L1.22-33.99L3.94-41.76L11.95-41.76L11.25-39.73L26.45-39.73L26.45-33.99L19.26-33.99L19.26-31.90L26.80-31.90L26.80-26.16L22.50-26.16L27.55-20.24L19.49-20.24L15.78-24.65L10.67-20.24Z" transform="translate(329.8 49.822)" data-glyph-w="53.36"></path><path fill="#FFFFFF" d="M21.40-3.60L22.33-3.60Q22.68-3.60 22.79-3.77L22.79-3.77Q22.79-3.83 22.97-4.00L22.97-4.00L23.08-4.29L23.08-7.37L10.85-7.37L10.85-5.39L9.57 0.23L3.25 0.23L4.35-5.39L4.35-27.67L25.00-27.67Q27.03-27.67 28.51-26.19Q29.99-24.71 29.99-22.68L29.99-22.68L29.99-4.47Q29.99-3.07 29.64-2.26L29.64-2.26Q29.29-1.45 28.59-0.75L28.59-0.75Q28.07-0.17 27.43 0.06L27.43 0.06Q26.74 0.23 26.16 0.23L26.16 0.23L19.78 0.23L21.40-3.60ZM41.70-27.32L54.75-27.32L52.14-22.16L37.87-22.16Q36.71-22.16 35.79-22.56L35.79-22.56Q34.68-22.97 33.99-23.72L33.99-23.72Q33.23-24.42 32.83-25.46L32.83-25.46Q32.36-26.56 32.36-27.61L32.36-27.61L32.36-41.64L39.90-41.64L39.90-33.76L45.59-41.01L53.13-41.01L43.67-29.12L39.90-29.12Q39.90-28.42 40.37-27.78L40.37-27.78Q41.01-27.32 41.70-27.32L41.70-27.32ZM41.70-5.68L54.75-5.68L52.14-0.58L37.87-0.58Q36.66-0.58 35.79-0.99L35.79-0.99Q35.26-1.16 34.83-1.48Q34.39-1.80 33.99-2.15L33.99-2.15Q33.23-2.78 32.83-3.89L32.83-3.89Q32.36-4.93 32.36-6.03L32.36-6.03L32.36-19.95L39.90-19.95L39.90-12.06L45.59-19.43L53.13-19.43L43.67-7.48L39.90-7.48Q39.90-6.67 40.37-6.21L40.37-6.21Q41.01-5.68 41.70-5.68L41.70-5.68ZM4.18-29.81L9.51-42.05L16.99-42.05L13.57-34.80L21.81-34.80L20.53-38.05L27.67-38.05L30.86-29.87L26.62-29.87L26.62-29.81L4.18-29.81ZM10.85-11.83L23.08-11.83L23.08-15.02L10.85-15.02L10.85-11.83ZM21.23-22.56L10.85-22.56L10.85-19.49L23.08-19.49L23.08-20.71Q23.08-21.46 22.53-22.01Q21.98-22.56 21.23-22.56L21.23-22.56Z" transform="translate(383.16 49.822)" data-glyph-w="58"></path><path fill="#FFFFFF" d="M43.91-18.73L36.95-18.73L40.31-33.23L47.27-33.23L43.91-18.73ZM13.86-33.23L16.99-18.73L10.03-18.73L6.90-33.23L13.86-33.23ZM52.14-12.30L52.14-10.79L30.74-10.79L30.74-0.12L22.68-0.12L22.68-10.79L1.22-10.79L1.22-12.30L1.22-16.18L1.22-16.47L22.68-16.47L22.68-35.96L3.13-35.96L3.13-36.83L3.13-40.72L3.13-41.64L50.23-41.64L50.23-40.72L50.23-36.83L50.23-35.96L30.74-35.96L30.74-16.47L52.14-16.47L52.14-16.18L52.14-12.30Z" transform="translate(441.16 49.822)" data-glyph-w="53.36"></path><path fill="#FFFFFF" d="M50.00-15.54L50.00-5.80Q50.00-4.64 49.56-3.65Q49.13-2.67 48.40-1.94Q47.68-1.22 46.66-0.78Q45.65-0.35 44.54-0.35L44.54-0.35L11.19-0.35L2.73-0.35L2.73-5.97L2.73-15.54L2.73-16.24L2.73-21.23L50.00-21.23L50.00-21.11L50.00-15.54ZM41.53-7.83L41.53-15.54L11.19-15.54L11.19-5.97L39.73-5.97Q40.48-5.97 41.01-6.50Q41.53-7.02 41.53-7.83L41.53-7.83ZM4.12-24.01L1.80-24.01L12.99-41.47L21.17-41.47L13.63-29.70L39.61-29.70L33.93-39.15L41.70-39.15L51.56-22.68L43.85-22.68L43.04-24.01L9.98-24.01L4.12-24.01Z" transform="translate(494.52000000000004 49.822)" data-glyph-w="53.36"></path></g></svg></g> <!----></g><g id="shape_zhxQBdhsrc" transform="translate(354.25164794921875,191.09163665771484) rotate(0,80,18.2276925089565) scale(1,1)" filter="" style="cursor: move; opacity: 1;"><g><rect fill="rgba(0,0,0,0)" width="180" height="56.455385017913" x="-10" y="-10"></rect><svg version="1.1" id="图层_1" xmlns="http://www.w3.org/2000/svg" xmlns:xlink="http://www.w3.org/1999/xlink" x="0px" y="0px" width="160" height="36.455385017913" viewBox="10.4219970703125 79.58999633789062 179.156005859375 40.82000732421875" enable-background="new 0 0 200 200" xml:space="preserve" preserveAspectRatio="none" data-parent="shape_zhxQBdhsrc">
<path fill="#ffffff" d="M189.578,120.41C167.084,98.817,135.27,85.35,100,85.35c-35.27,0-67.084,13.467-89.578,35.06
	C31.282,95.549,63.662,79.59,100,79.59C136.338,79.59,168.717,95.549,189.578,120.41z"></path>
</svg></g> <!----></g>  <!----></svg>